<svg xmlns="http://www.w3.org/2000/svg" viewBox="0 0 101.41 129.72"><defs><style>.cls-1{fill:#f1764a;}.cls-2{fill:#b7d0ec;}.cls-3{fill:#fefdfc;}.cls-4{fill:#f5a486;}.cls-5{fill:#e4f4fa;}.cls-6{fill:#d0ebf4;}.cls-7{fill:#ec664c;}.cls-8{fill:#060908;}.cls-9{fill:#fcfcfc;}.cls-10{fill:#ec664d;}.cls-11{fill:#f8aa81;}.cls-12{fill:#ec674d;}.cls-13{fill:#fefefe;}.cls-14{fill:#fefdfd;}.cls-15{fill:#060909;}</style></defs><g id="图层_2" data-name="图层 2"><g id="export"><g id="图层_2-2" data-name="图层 2"><g id="图层_1-2" data-name="图层 1"><path id="路径_18733" data-name="路径 18733" class="cls-1" d="M42.46,129.72H35.41a3.29,3.29,0,0,0-1,0H31.21c-.11,0,.35-.25.56-.32,1.91-.48,3.81-.9,5.7-1.39a27.42,27.42,0,0,0,4.13-1.38,5.1,5.1,0,0,0,1.76-1.18A2.05,2.05,0,0,0,44,123.9v-4.45c-.1-1.88,0-3.77-.08-5.64,0-1.46,0-2.91-.09-4.35-.11-1.77,0-3.53-.09-5.4V103a14.64,14.64,0,0,1-.09,1.87c-.12,2.46-.31,4.93-.47,7.4-.11,1.52-.22,3-.31,4.55s-.17,3.25-.35,4.87a4.16,4.16,0,0,1-2.88,3.53,7.42,7.42,0,0,1-2.83.54H31c-1.51,0-3,0-4.55-.14-.18,0-.44,0-.45-.19s.28-.2.45-.23c2.86-.63,5.73-1.16,8.61-1.76a5.94,5.94,0,0,0,1.57-.58,2.58,2.58,0,0,0,1.46-2.35v-1.64c0-2.88,0-5.73-.11-8.61V98.63a26.47,26.47,0,0,1-.19,4c-.19,1.33-.21,2.6-.3,3.9s-.21,2.59-.31,3.88-.19,2.7-.3,4-.1,2.73-.33,4.07a4.25,4.25,0,0,1-4.42,3.78c-3.4,0-6.81.14-10.21,0a3,3,0,0,1-.6,0s-.18,0-.18-.15,0-.14.14-.17a2.55,2.55,0,0,1,.53-.18c2.47-.67,4.94-1.34,7.37-2.13a9.19,9.19,0,0,0,2-.87,1.5,1.5,0,0,0,.81-1.53c-.15-2.08-.26-4.15-.39-6.23s-.26-4.58-.42-6.86l-.32-5.3c-.12-1.64-.19-3.26-.31-4.9a8.64,8.64,0,0,0-.13-1.76,1.57,1.57,0,0,1,0-.53c-.12-.65,0-1.34-.15-2l-.37-6.35c0-.92-.11-1.76-.14-2.73-.14-2-.25-4-.35-5.93s-.23-4.06-.41-6.08V67.23c0-.44.44-.15.65,0a12.84,12.84,0,0,0,2.22.81,13.36,13.36,0,0,0,9-1,13.13,13.13,0,0,0,6.35-6.11A12.84,12.84,0,0,0,48.65,54a13.08,13.08,0,0,0-3.07-7.74,13.27,13.27,0,0,0-8.82-4.8,12.8,12.8,0,0,0-7.4,1.29c-.23.1-.46.32-.74.17a3.55,3.55,0,0,1-.11-1.62,24.6,24.6,0,0,1,.71-4.82,22,22,0,0,1,4.84-9.25,22.68,22.68,0,0,1,15-7.64,21.72,21.72,0,0,1,8.7,1A22.43,22.43,0,0,1,72.24,34.47a23,23,0,0,1,1.25,5.73l.11,2a1.11,1.11,0,0,1-.2.73c-.24.15-.45,0-.67,0a14.15,14.15,0,0,0-6-1.41A13.49,13.49,0,0,0,56.12,63.24a13.46,13.46,0,0,0,16.06,4.05,5.31,5.31,0,0,1,.55-.23.54.54,0,0,1,.37.09,8.12,8.12,0,0,1,0,2c0,1.11-.12,2.2-.21,3.31s-.15,2.47-.23,3.71-.32,2.15-.32,3.23a3.29,3.29,0,0,1-.09.88c0,1.32-.14,2.66-.21,4a10.51,10.51,0,0,1-.1,1.77c0,1.13-.13,2.27-.2,3.4v2.19a.76.76,0,0,1,0,.3c0,.51-.1,1-.12,1.55,0,1.62-.21,3.23-.27,4.85v.42c0,1.32-.15,2.63-.23,4s-.12,2.31-.19,3.53-.15,2.36-.23,3.52-.12,2.07-.19,3.11-.13,2.39-.23,3.52a7.88,7.88,0,0,0,0,1.19,1,1,0,0,0,.51.83,5.91,5.91,0,0,0,1.59.79c2.2.79,4.46,1.39,6.7,2l1.76.44c.18,0,.44.09.43.28s-.31.18-.48.18H70a4.26,4.26,0,0,1-4.24-3.71,26.43,26.43,0,0,1-.26-2.81c-.14-1.77-.28-3.67-.4-5.52,0-1.37-.21-2.72-.28-4.08s-.18-2.38-.28-3.52-.16-2.77-.23-4.17c.15,2.33,0,4.66,0,7.06v4.72c0,1.57,0,3.33-.09,5s0,3.63,0,5.43a2.43,2.43,0,0,0,1,2.17,8.43,8.43,0,0,0,2.29.7c2.54.53,5.08,1,7.62,1.57.23,0,.62,0,.62.31s-.41.15-.64.21a2.94,2.94,0,0,1-.42,0c-1.76,0-3.63.12-5.45,0a34.64,34.64,0,0,1-3.53,0,9.47,9.47,0,0,1-3.75-.71,4.24,4.24,0,0,1-2.72-3.93c0-1.33-.19-2.67-.28-4s-.21-2.89-.3-4.34-.2-2.71-.28-4.08-.2-2.38-.22-3.53v.56c0,2.39,0,4.78-.12,7.18v4.88c-.12,2,0,4-.11,6a2.39,2.39,0,0,0,.85,2,6.39,6.39,0,0,0,1.76,1,48,48,0,0,0,7.06,2.08c.95.23,1.88.47,2.84.69.17,0,.49,0,.42.37H58.14a6.26,6.26,0,0,1-4.75-3.07,4,4,0,0,1-.44-1.29c-.69-3.28-1.28-6.58-2-9.91-.4,1.94-.77,3.84-1.14,5.75-.27,1.39-.48,2.79-.81,4.15a5.53,5.53,0,0,1-3.26,3.84,7.06,7.06,0,0,1-3,.65S42.51,129.67,42.46,129.72Z"/><path id="路径_18734" data-name="路径 18734" class="cls-2" d="M30.34,91.45a39.94,39.94,0,0,1-5.2-2.88,49.34,49.34,0,0,1-6.84-5.29A48.47,48.47,0,0,1,11,74.62,47.1,47.1,0,0,1,5.34,63.06c-.44-1.34-.83-2.7-1.17-4.17-.31.57-.63,1-1.21,1.12-1.36.21-2.34.22-3-1.26V39.14c.23-.49.48-1,1-1.14a3.13,3.13,0,0,1,2.49.18c.4.24.4.26.51-.2a44.49,44.49,0,0,1,1.75-6,46.84,46.84,0,0,1,3.53-7.69,46.19,46.19,0,0,1,4-6c.76-1,1.55-1.89,2.38-2.79s2-2.08,3.07-3.07a47.49,47.49,0,0,1,12-7.95A46.08,46.08,0,0,1,41.74,1,53.62,53.62,0,0,1,47.52.17,44,44,0,0,1,52.65,0,49.66,49.66,0,0,1,66.26,2.49a46.85,46.85,0,0,1,10.88,5.3,47.57,47.57,0,0,1,6.26,4.76A48.21,48.21,0,0,1,98,37.52c0,.32.13.48.55.39a4.72,4.72,0,0,1,1.5,0,1.62,1.62,0,0,1,1.39,1.6V58.4a1.76,1.76,0,0,1-1.76,1.76h0a2.8,2.8,0,0,1-1.77-.33c-.21-.15-.19,0-.21.18-.35,1.18-.67,2.38-1.08,3.52A47.26,47.26,0,0,1,86.26,80.85,47.7,47.7,0,0,1,71.52,91.72a16.3,16.3,0,0,1,0-2.21,1.2,1.2,0,0,1,.51-.35,46.7,46.7,0,0,0,9.31-6.38,46,46,0,0,0,6.88-7.6,50.72,50.72,0,0,0,3.65-5.93,46.26,46.26,0,0,0,3.4-8.5,47,47,0,0,0,1.47-7.62,48.38,48.38,0,0,0,.3-7.42A43.23,43.23,0,0,0,96,37.94a45.28,45.28,0,0,0-9.86-19.7c-.88-1-1.76-2-2.71-3a48.22,48.22,0,0,0-10.3-7.66A46.39,46.39,0,0,0,62,3.29a50.86,50.86,0,0,0-7-1.14A45.83,45.83,0,0,0,30.33,6.86a43.79,43.79,0,0,0-9.12,6.05,46.92,46.92,0,0,0-5.45,5.47,47.93,47.93,0,0,0-5.64,8.39A44.89,44.89,0,0,0,5.34,41.65C5.14,43,5,44.33,5,45.69v2.85a40.18,40.18,0,0,0,.39,6.39,44.07,44.07,0,0,0,1.87,7.84,46,46,0,0,0,7.06,13.35A44.13,44.13,0,0,0,19.65,82a44.58,44.58,0,0,0,8,5.91l2.17,1.2a1.17,1.17,0,0,1,.4.3Z"/><path id="路径_18735" data-name="路径 18735" class="cls-3" d="M42.46,129.72c.5-.11,1-.19,1.51-.25a6.27,6.27,0,0,0,4.36-3,9,9,0,0,0,.79-2.79c.58-2.94,1.15-5.87,1.76-8.9a3.12,3.12,0,0,1,.29,1c.61,3.07,1.18,6.16,1.76,9.22a5.42,5.42,0,0,0,3.76,4.11,9.64,9.64,0,0,0,2.25.5h.31Z"/><path id="路径_18736" data-name="路径 18736" class="cls-4" d="M30.89,129.72a.27.27,0,0,1,.33-.14c.15.1.31,0,.46,0h3.77Z"/><path id="路径_18737" data-name="路径 18737" class="cls-5" d="M30.2,89.42a23,23,0,0,1-2.77-1.48,43.47,43.47,0,0,1-5.83-4.07,48.41,48.41,0,0,1-5-4.75,43.77,43.77,0,0,1-4.25-5.59,46,46,0,0,1-5-9.86,47.19,47.19,0,0,1-1.76-6.06C5.3,56,5.07,54.42,4.9,52.79a43.31,43.31,0,0,1-.23-6.34,32.25,32.25,0,0,1,.39-4.39,42.83,42.83,0,0,1,1-5.49,46.94,46.94,0,0,1,3-8.2,43.52,43.52,0,0,1,3.72-6.45,47.26,47.26,0,0,1,3.14-4.06,38.4,38.4,0,0,1,3.35-3.52A45.49,45.49,0,0,1,26.11,9a44.32,44.32,0,0,1,4.67-2.59A44.83,44.83,0,0,1,39,3.39a50.84,50.84,0,0,1,5.85-1.16C45.91,2.09,47,2,48.05,2a44.88,44.88,0,0,1,4.64,0,35.77,35.77,0,0,1,4.39.37,51.13,51.13,0,0,1,7.23,1.55,43.15,43.15,0,0,1,5.3,2,44.73,44.73,0,0,1,11.92,7.62c.79.7,1.58,1.39,2.31,2.15A46.94,46.94,0,0,1,92,26.89,44.92,44.92,0,0,1,96.84,42.6a47,47,0,0,1,.2,8,43.24,43.24,0,0,1-1.29,8.63,45.7,45.7,0,0,1-3.24,8.94A44.75,44.75,0,0,1,87.74,76c-.95,1.27-2,2.49-3.08,3.67a45.83,45.83,0,0,1-8.55,7.17,35.41,35.41,0,0,1-4.17,2.43l-.38.15c.08-1.77.19-3.42.28-5.13,0-1.33.17-2.67.24-4a1.4,1.4,0,0,1,.38-.35,40.36,40.36,0,0,0,5.18-4.32A37.81,37.81,0,0,0,88.4,53.44a40.22,40.22,0,0,0,.21-6.58,36.76,36.76,0,0,0-1.67-9.12A37.32,37.32,0,0,0,83,29.13a38.11,38.11,0,0,0-6.58-8,37.69,37.69,0,0,0-28-9.89,42,42,0,0,0-7.87,1.31c-.62.15-1.23.39-1.85.58a.8.8,0,0,1-.53,0,.89.89,0,0,1-.11-.62,2,2,0,0,0-4,.17,2,2,0,0,0,.65,1.4c.12.13.28.2.33.37s-.12.23-.23.28l-2,1a.28.28,0,0,1-.25,0,1,1,0,0,1-.23-.35,1.32,1.32,0,0,0-1.75-.64l-.12.06c-.42.21-.83.49-1.23.74A38.74,38.74,0,0,0,11.29,44a37.08,37.08,0,0,0-.21,6.49A38.27,38.27,0,0,0,14.5,64.61a39.79,39.79,0,0,0,4.13,7c.76,1,1.06,1.11,2.26.76a.17.17,0,0,1,.14,0,.61.61,0,0,1,.33.28,39.7,39.7,0,0,0,8,7.42,1.31,1.31,0,0,1,.36.3c0,1.27.17,2.54.24,3.81C30,85.9,30.11,87.66,30.2,89.42Z"/><path id="路径_18738" data-name="路径 18738" class="cls-6" d="M32.56,15.75,35,14.48c.14-.13.27,0,.41,0a2,2,0,0,0,2.52-1,.24.24,0,0,1,.24-.26h0c1-.28,1.94-.66,3-.89,1.32-.31,2.64-.58,4-.81a37.93,37.93,0,0,1,7.6-.4,28.81,28.81,0,0,1,4.54.51,35.66,35.66,0,0,1,5.29,1.25A38.88,38.88,0,0,1,67.88,15a39.29,39.29,0,0,1,7.05,4.55,40.93,40.93,0,0,1,4,3.78,38.34,38.34,0,0,1,4.94,6.8,35.51,35.51,0,0,1,3,6.75,41.89,41.89,0,0,1,1.61,6.88,39.34,39.34,0,0,1,.23,7.36,37,37,0,0,1-1.45,8.41A40.36,40.36,0,0,1,85.24,65a37,37,0,0,1-2.93,5.3,35.54,35.54,0,0,1-2.91,3.58c-.6.65-1.16,1.34-1.76,1.94a47.61,47.61,0,0,1-5,4.19,1.17,1.17,0,0,1-.51.31l.58-9.67.21-3.7c0-.23.22-.28.38-.37a13.48,13.48,0,0,0,.42-23.16c-.19-.12-.53-.19-.35-.55A18.08,18.08,0,0,0,73,37.58a22.1,22.1,0,0,0-12.84-16.1,21.26,21.26,0,0,0-8-1.93A22.42,22.42,0,0,0,31.41,31.1a21.9,21.9,0,0,0-2.74,9.53,16,16,0,0,0,0,2.19c0,.23-.23.3-.39.38a13.51,13.51,0,0,0-5.1,5.6,12.62,12.62,0,0,0-1.36,6.58,13.39,13.39,0,0,0,6.74,11,.38.38,0,0,1,.37.39h0c.09,1.89.19,3.76.3,5.65s.21,3.29.3,5c0,.95.11,1.9.16,2.86a6,6,0,0,1-1.43-.89,40.55,40.55,0,0,1-5.06-4.56,23,23,0,0,1-2.14-2.49c-.09-.18,0-.3.09-.42A1.45,1.45,0,0,0,21,70.13a36.23,36.23,0,0,1-3.53-5.69,39.25,39.25,0,0,1-2.23-5.65,33.72,33.72,0,0,1-1.27-6,38.25,38.25,0,0,1-.18-6.42A34.4,34.4,0,0,1,16.8,34a36.64,36.64,0,0,1,3.9-6.76A35.5,35.5,0,0,1,25.32,22a32.54,32.54,0,0,1,6-4.46A1.9,1.9,0,0,0,32.48,16,.25.25,0,0,1,32.56,15.75Z"/><path id="路径_18739" data-name="路径 18739" class="cls-7" d="M73.37,42.87c0,.21.15.3.32.4A13.45,13.45,0,0,1,79.9,52a13.59,13.59,0,0,1-6.51,14.68,2,2,0,0,0-.46.3,21.89,21.89,0,0,1-3.24,1.15,13.92,13.92,0,0,1-4.73.21,12.79,12.79,0,0,1-6.72-2.84A13.29,13.29,0,0,1,54,59.6a12.91,12.91,0,0,1-.85-5.5,13.38,13.38,0,0,1,2.54-7.16A14.78,14.78,0,0,1,60,43a12.33,12.33,0,0,1,3.84-1.45,12,12,0,0,1,3.27-.33,15.48,15.48,0,0,1,4.5.92A7.35,7.35,0,0,0,73.37,42.87Z"/><path id="路径_18740" data-name="路径 18740" class="cls-7" d="M28.92,66.85c-.09-.15-.27-.21-.41-.3a13.61,13.61,0,0,1-.15-23.47l.3-.21c.72-.23,1.38-.64,2.1-.89a13.93,13.93,0,0,1,3.77-.74A13.52,13.52,0,0,1,48.16,58.88a13.77,13.77,0,0,1-1.6,3.38,14.5,14.5,0,0,1-3.28,3.53,13.66,13.66,0,0,1-5.93,2.47,13,13,0,0,1-3.52,0,13.28,13.28,0,0,1-4.57-1.32,1,1,0,0,0-.33-.09Z"/><path id="路径_18741" data-name="路径 18741" class="cls-8" d="M59,77a13.09,13.09,0,0,1-3.1,8.63,6.24,6.24,0,0,1-8.76.95A6.49,6.49,0,0,1,46,85.37a14.42,14.42,0,0,1-2.94-7,13,13,0,0,1-.25-2.64c.15.1.15.26.19.4a7.88,7.88,0,0,0,7.82,6.46,8.59,8.59,0,0,0,4.77-1.24,7.06,7.06,0,0,0,3.11-4C58.73,77.22,58.68,76.94,59,77Z"/><path id="路径_18742" data-name="路径 18742" class="cls-9" d="M59,77s-.13,0-.15.09a7.07,7.07,0,0,1-5.55,5.4,8.32,8.32,0,0,1-7.87-1.76A7.71,7.71,0,0,1,43,76.78a9.23,9.23,0,0,1-.21-1V74.61c.35.33.65.65,1,.92a13.69,13.69,0,0,0,4.44,2.78,8.85,8.85,0,0,0,7.25-.7,15.5,15.5,0,0,0,3.25-2.26l.37-.34C59.16,75.84,59,76.37,59,77Z"/><path id="路径_18743" data-name="路径 18743" class="cls-10" d="M71.55,91.86c.44.93.89,1.87,1.42,2.78a4.38,4.38,0,0,0,2.9,2.17c2.27.57,4.55,1.06,6.85,1.5l.54.12a7.05,7.05,0,0,1-1.59.27c-2.13.3-4.28.58-6.43.83a6.92,6.92,0,0,1-2.72,0,2.64,2.64,0,0,1-1.23-.76s-.14-.18-.28-.12a8,8,0,0,0,.14-1.77c0-1.23.19-2.48.21-3.72A2.52,2.52,0,0,1,71.55,91.86Z"/><path id="路径_18744" data-name="路径 18744" class="cls-11" d="M44.91,30.31a3.14,3.14,0,0,1-3.1,3.1,3.18,3.18,0,0,1-3.07-3.1,3.09,3.09,0,0,1,3.08-3.09h0a3,3,0,0,1,3,3v.08Z"/><path id="路径_18745" data-name="路径 18745" class="cls-12" d="M30.8,98.63a3.82,3.82,0,0,1-3.4,1c-2.74-.28-5.45-.74-8.19-1.06a.74.74,0,0,1-.21,0c1.94-.39,3.83-.78,5.7-1.25l1.76-.46a3.73,3.73,0,0,0,2.24-1.76,22.13,22.13,0,0,0,1.57-3.16,2.3,2.3,0,0,1,.15.9c.09,1.16.13,2.35.18,3.53C30.68,97,30.73,97.85,30.8,98.63Z"/><path id="路径_18746" data-name="路径 18746" class="cls-13" d="M32.57,15.75a1.68,1.68,0,0,1-.9,1.66,34,34,0,0,0-5.47,3.91,37.42,37.42,0,0,0-3.69,3.76A33.45,33.45,0,0,0,19,29.84a35.66,35.66,0,0,0-4.47,11.43A38.8,38.8,0,0,0,14,50.63a34.54,34.54,0,0,0,2.29,10.72,39.62,39.62,0,0,0,3.83,7.33c.31.48.67,1,1,1.41a1.55,1.55,0,0,1,.13,2.07.61.61,0,0,0,0,.19,7,7,0,0,1-.89.27,1.56,1.56,0,0,1-1.46-.74,37.13,37.13,0,0,1-4.07-6.72,37.83,37.83,0,0,1-3.12-9.67A39,39,0,0,1,11.14,51a45.47,45.47,0,0,1,0-4.67,38.65,38.65,0,0,1,.91-6.51,39.2,39.2,0,0,1,2.84-8.22A40,40,0,0,1,19,24.7a41.7,41.7,0,0,1,4.61-5,39.18,39.18,0,0,1,6.71-5C31.22,14.23,32.13,14.62,32.57,15.75Z"/><path id="路径_18747" data-name="路径 18747" class="cls-13" d="M38.23,13.21a5.72,5.72,0,0,1-.59.89,2.09,2.09,0,0,1-2.32.45h-.25a2.2,2.2,0,0,1-.68-3l.12-.16a2.12,2.12,0,0,1,3.77,1.18Z"/><path id="路径_18748" data-name="路径 18748" class="cls-14" d="M77.2,55A10.58,10.58,0,1,1,66.62,44.37,10.58,10.58,0,0,1,77.2,55Z"/><path id="路径_18749" data-name="路径 18749" class="cls-14" d="M24.45,54.81a10.69,10.69,0,1,1,3.1,7.61A10.69,10.69,0,0,1,24.45,54.81Z"/><path id="路径_18750" data-name="路径 18750" class="cls-15" d="M63.53,52.91a3.3,3.3,0,1,1,1,2.37A3.3,3.3,0,0,1,63.53,52.91Z"/><path id="路径_18751" data-name="路径 18751" class="cls-15" d="M35.1,49.67A3.32,3.32,0,1,1,31.79,53v-.08A3.31,3.31,0,0,1,35.1,49.67Z"/></g></g></g></g></svg>